Coordinates
version=1
nRows=41
nColumns=24
inDegrees=yes

Units are S.I. units (second, meters, Newtons, ...)
If the header above contains a line with 'inDegrees', this indicates whether rotational values are in degrees (yes) or radians (no).

endheader
time	pelvis_tilt	pelvis_list	pelvis_rotation	pelvis_tx	pelvis_ty	pelvis_tz	hip_flexion_r	hip_adduction_r	hip_rotation_r	knee_angle_r	ankle_angle_r	subtalar_angle_r	mtp_angle_r	hip_flexion_l	hip_adduction_l	hip_rotation_l	knee_angle_l	ankle_angle_l	subtalar_angle_l	mtp_angle_l	lumbar_extension	lumbar_bending	lumbar_rotation
6.350000	7.414583	2.385448	-179.406199	0.321879	0.461954	-1.219876	83.947346	-31.352004	-5.448665	-121.273978	42.047392	9.682882	0.000000	89.555893	-33.756454	5.463265	-119.814822	40.828546	18.421717	0.000000	-16.096641	2.497714	3.199523
6.355000	7.384619	2.363536	-179.379459	0.321948	0.461931	-1.219972	83.982542	-31.405420	-5.624538	-121.363832	41.724747	8.867269	0.000000	89.511918	-33.745689	5.430652	-119.810759	40.784398	18.425183	0.000000	-16.117519	2.473298	3.202467
6.360000	7.365384	2.376839	-179.389846	0.322062	0.461823	-1.220061	83.942134	-31.369911	-5.464765	-121.311085	42.047338	9.643241	0.000000	89.554906	-33.771564	5.496171	-119.856865	40.783718	18.536803	0.000000	-16.118934	2.503453	3.216185
6.365000	7.328335	2.398382	-179.401010	0.322103	0.461787	-1.220109	83.931710	-31.372101	-5.536657	-121.377226	41.939331	9.466224	0.000000	89.564011	-33.801673	5.543152	-119.877074	40.752373	18.516538	0.000000	-16.135502	2.538150	3.237617
6.370000	7.315726	2.405228	-179.428265	0.322174	0.461677	-1.220188	83.927065	-31.338507	-5.470665	-121.370395	42.073423	9.731686	0.000000	89.592638	-33.851188	5.550838	-119.858657	40.773737	18.473946	0.000000	-16.127954	2.551602	3.291383
6.375000	7.279892	2.382579	-179.390157	0.322280	0.461623	-1.220214	83.916047	-31.404800	-5.518575	-121.375048	42.073492	9.606607	0.000000	89.558681	-33.814232	5.532369	-119.854708	40.745941	18.493272	0.000000	-16.151341	2.543923	3.245999
6.380000	7.259590	2.364511	-179.365042	0.322392	0.461567	-1.220292	83.911513	-31.427271	-5.500941	-121.376978	42.061080	9.606703	0.000000	89.537289	-33.796424	5.532339	-119.872436	40.721755	18.556811	0.000000	-16.157907	2.530684	3.230551
6.385000	7.243450	2.371233	-179.353069	0.322489	0.461525	-1.220402	83.891437	-31.417556	-5.447233	-121.391519	42.083947	9.874191	0.000000	89.550993	-33.809688	5.529781	-119.825787	40.767452	18.556415	0.000000	-16.159029	2.536793	3.223523
6.390000	7.214251	2.357155	-179.330564	0.322560	0.461503	-1.220403	83.890054	-31.448387	-5.443810	-121.413158	42.096372	9.859111	0.000000	89.530240	-33.787887	5.536078	-119.870481	40.717257	18.577026	0.000000	-16.165541	2.530431	3.223436
6.395000	7.166869	2.356324	-179.333284	0.322612	0.461519	-1.220438	83.908366	-31.480597	-5.671133	-121.497572	41.772534	8.920854	0.000000	89.503893	-33.814952	5.524399	-119.843851	40.742997	18.553674	0.000000	-16.194616	2.534429	3.243972
6.400000	7.168298	2.342539	-179.322045	0.322756	0.461477	-1.220470	83.894720	-31.471006	-5.500273	-121.422322	42.062562	9.600304	0.000000	89.512430	-33.803424	5.531032	-119.871520	40.693062	18.613673	0.000000	-16.179504	2.546436	3.223293
6.405000	7.129614	2.311364	-179.319489	0.322856	0.461504	-1.220542	83.915709	-31.495802	-5.634920	-121.496592	41.764702	8.905291	0.000000	89.458306	-33.819779	5.490611	-119.861650	40.678870	18.659572	0.000000	-16.204709	2.511595	3.239004
6.410000	7.114167	2.304198	-179.316690	0.322976	0.461499	-1.220613	83.912417	-31.504885	-5.664614	-121.493078	41.760212	8.894149	0.000000	89.458617	-33.836379	5.461191	-119.818127	40.686289	18.654339	0.000000	-16.199097	2.506471	3.242908
6.415000	7.082749	2.284778	-179.322457	0.323089	0.461576	-1.220651	83.903284	-31.493042	-5.652647	-121.482613	41.716689	8.828106	0.000000	89.409769	-33.846854	5.443302	-119.835648	40.645074	18.678278	0.000000	-16.218432	2.485736	3.289126
6.420000	7.048488	2.278066	-179.326439	0.323211	0.461625	-1.220726	83.887359	-31.479497	-5.658753	-121.481376	41.745346	8.765749	0.000000	89.387565	-33.865136	5.421625	-119.791737	40.673382	18.650125	0.000000	-16.240357	2.495364	3.259660
6.425000	7.037043	2.272694	-179.320619	0.323362	0.461717	-1.220766	83.878949	-31.479548	-5.672225	-121.459047	41.718936	8.755832	0.000000	89.354327	-33.859334	5.384305	-119.762312	40.631888	18.644141	0.000000	-16.233141	2.496405	3.285724
6.430000	7.028917	2.262032	-179.317254	0.323506	0.461848	-1.220868	83.865053	-31.463729	-5.670866	-121.432124	41.716217	8.757127	0.000000	89.351654	-33.866827	5.373838	-119.707890	40.629151	18.644473	0.000000	-16.223444	2.499571	3.268376
6.435000	7.028057	2.258309	-179.310344	0.323704	0.461973	-1.220963	83.851547	-31.451337	-5.691728	-121.393003	41.712234	8.755100	0.000000	89.335513	-33.867005	5.333605	-119.635003	40.620682	18.642498	0.000000	-16.216235	2.502023	3.265866
6.440000	6.976584	2.224433	-179.316863	0.323815	0.462165	-1.221048	83.808140	-31.440032	-5.671645	-121.370549	41.671493	8.706822	0.000000	89.260561	-33.893745	5.297288	-119.628113	40.570579	18.690169	0.000000	-16.261652	2.467031	3.275994
6.445000	6.975873	2.229237	-179.313760	0.323934	0.462349	-1.220998	83.791584	-31.438197	-5.689854	-121.336635	41.667844	8.700431	0.000000	89.233896	-33.892398	5.252793	-119.566881	40.568025	18.683013	0.000000	-16.237813	2.493449	3.286008
6.450000	6.934242	2.215740	-179.327030	0.324052	0.462601	-1.220968	83.749900	-31.426758	-5.695221	-121.302209	41.652093	8.620830	0.000000	89.160788	-33.908749	5.212469	-119.536339	40.528095	18.619730	0.000000	-16.268790	2.493118	3.323381
6.455000	6.940250	2.212703	-179.325913	0.324229	0.462903	-1.220971	83.727386	-31.416514	-5.727639	-121.238549	41.640244	8.615960	0.000000	89.131297	-33.905898	5.173908	-119.466271	40.521312	18.624310	0.000000	-16.255530	2.496126	3.328824
6.460000	6.892778	2.196791	-179.314887	0.324411	0.463256	-1.221086	83.648237	-31.400093	-5.742443	-121.174123	41.593942	8.574886	0.000000	89.046442	-33.906867	5.139957	-119.394566	40.459961	18.656833	0.000000	-16.290999	2.485048	3.270016
6.465000	6.860690	2.190149	-179.294686	0.324557	0.463644	-1.221160	83.565013	-31.401357	-5.776559	-121.103108	41.555269	8.566555	0.000000	88.969808	-33.901629	5.105776	-119.338487	40.457139	18.724855	0.000000	-16.300872	2.482127	3.265896
6.470000	6.845292	2.187253	-179.273051	0.324670	0.464087	-1.221140	83.494589	-31.414885	-5.820890	-121.020273	41.565196	8.518842	0.000000	88.894939	-33.883344	5.054881	-119.256113	40.451119	18.748269	0.000000	-16.297104	2.507917	3.215564
6.475000	6.842925	2.195874	-179.285302	0.324776	0.464601	-1.221128	83.430592	-31.393384	-5.872839	-120.929111	41.530966	8.504468	0.000000	88.830780	-33.901530	4.999242	-119.146742	40.414709	18.724405	0.000000	-16.278648	2.513807	3.271206
6.480000	6.826508	2.193114	-179.278738	0.324943	0.465150	-1.221137	83.358474	-31.392023	-5.921348	-120.834999	41.500759	8.455480	0.000000	88.752283	-33.894060	4.959921	-119.065727	40.382063	18.738173	0.000000	-16.286125	2.510750	3.273898
6.485000	6.820242	2.193756	-179.262168	0.325152	0.465693	-1.221131	83.285116	-31.390015	-5.971441	-120.728893	41.463011	8.409129	0.000000	88.684737	-33.872929	4.913985	-118.959531	40.340145	18.745220	0.000000	-16.282452	2.555868	3.169886
6.490000	6.822521	2.181757	-179.247308	0.325309	0.466353	-1.221119	83.204556	-31.393999	-6.019847	-120.601675	41.416348	8.377366	0.000000	88.585969	-33.848348	4.837374	-118.834279	40.276871	18.742906	0.000000	-16.267062	2.547197	3.159313
6.495000	6.825926	2.170081	-179.196645	0.325557	0.467043	-1.221061	83.124916	-31.425409	-6.066097	-120.465843	41.348146	8.363964	0.000000	88.496506	-33.772243	4.764446	-118.694923	40.219313	18.737192	0.000000	-16.257756	2.567691	3.073962
6.500000	6.849764	2.188662	-179.172963	0.325784	0.467815	-1.221000	83.036874	-31.418075	-6.148154	-120.312015	41.304708	8.330676	0.000000	88.404086	-33.720089	4.669360	-118.507880	40.206726	18.596492	0.000000	-16.228935	2.603862	3.072837
6.505000	6.896386	2.181137	-179.160917	0.325943	0.468682	-1.220942	82.979200	-31.418032	-6.211979	-120.151861	41.278338	8.308598	0.000000	88.336583	-33.685085	4.601274	-118.392600	40.149092	18.597378	0.000000	-16.169957	2.589965	3.080163
6.510000	6.904591	2.166723	-179.141700	0.326233	0.469589	-1.220974	82.894391	-31.393475	-6.258005	-119.986163	41.206370	8.233208	0.000000	88.220998	-33.636118	4.509701	-118.214950	40.032964	18.562032	0.000000	-16.169846	2.599487	2.987608
6.515000	6.952762	2.153600	-179.082880	0.326481	0.470582	-1.220871	82.804266	-31.418191	-6.321306	-119.778963	41.117688	8.179287	0.000000	88.098015	-33.533863	4.355310	-117.992855	39.965281	18.438399	0.000000	-16.117163	2.613138	2.917922
6.520000	6.999537	2.136386	-179.058042	0.326799	0.471623	-1.220944	82.719809	-31.377888	-6.375351	-119.566124	41.060137	8.155126	0.000000	87.986718	-33.474701	4.243785	-117.766602	39.885249	18.421329	0.000000	-16.078292	2.599200	2.886799
6.525000	7.081642	2.123651	-179.044480	0.327068	0.472788	-1.220895	82.665546	-31.331188	-6.430997	-119.336015	40.965657	8.060592	0.000000	87.896908	-33.415762	4.113770	-117.547109	39.783372	18.344750	0.000000	-16.004349	2.572009	2.913989
6.530000	7.113280	2.116680	-179.026780	0.327336	0.473975	-1.220803	82.568703	-31.302387	-6.498158	-119.123428	40.876207	7.962378	0.000000	87.769955	-33.354767	4.016723	-117.356303	39.703473	18.311117	0.000000	-15.972501	2.611336	2.836415
6.535000	7.200834	2.132726	-179.025920	0.327633	0.475297	-1.220769	82.481323	-31.230057	-6.598833	-118.862121	40.748385	7.872940	0.000000	87.667987	-33.304873	3.898581	-117.094010	39.620072	18.201378	0.000000	-15.888270	2.629887	2.855206
6.540000	7.278285	2.143114	-179.001453	0.328041	0.476655	-1.220792	82.371096	-31.168562	-6.709100	-118.584333	40.641100	7.801207	0.000000	87.568684	-33.227766	3.794338	-116.820035	39.475854	18.127533	0.000000	-15.832682	2.606533	2.904820
6.545000	7.363997	2.130216	-178.996294	0.328435	0.478088	-1.220847	82.280060	-31.084737	-6.789845	-118.288124	40.508392	7.734960	0.000000	87.449426	-33.173844	3.661112	-116.533112	39.349309	18.098809	0.000000	-15.771625	2.604768	2.833432
6.550000	7.439949	2.033812	-178.967254	0.328750	0.479680	-1.220677	82.220134	-31.063663	-6.751550	-117.979289	40.393962	7.646463	0.000000	87.414815	-32.971598	3.997297	-116.018371	38.727307	18.867384	0.000000	-15.693730	2.538726	2.771409
